<svg version="1.1" id="Слой_2" xmlns="http://www.w3.org/2000/svg" x="0" y="0" viewBox="0 0 450 450" xml:space="preserve"><style>.st0{fill:#fff}.st3{fill:#e9007f}</style><switch><g><path class="st0" d="M166.8 108.5c-.3 0-.6-.2-.6-.5-.1-.4.2-.7.5-.7l36.2-6.1c.4-.1.7.2.7.5.1.4-.2.7-.5.7l-36.2 6.1h-.1zm50.3 56h-.2c-.3-.1-.5-.5-.4-.8l12.5-35.5c.1-.3.5-.5.8-.4.3.1.5.5.4.8l-12.5 35.5c-.1.3-.3.4-.6.4"/><linearGradient id="SVGID_1_" gradientUnits="userSpaceOnUse" x1=".114" y1=".629" x2="1.114" y2=".629" gradientTransform="matrix(52.4422 0 0 -52.4422 193.51 140.101)"><stop offset="0" stop-color="#75a8f9"/><stop offset="1" stop-color="#de47ec"/></linearGradient><path d="M226 133.3c-.1 0-.1 0 0 0-.1 0-.1 0 0 0m13.1-3.6c-3.8 2.3-8.3 3.6-13.1 3.7h1.1c.5 0 .9-.1 1.4-.1 3.9-.5 7.5-1.8 10.6-3.6m12.8-21.9c-.1 5-1.6 9.6-4.2 13.5 2.6-3.9 4.1-8.5 4.2-13.5m0-.1c0 .1 0 .1 0 0 0 .1 0 .1 0 0m0-.1s0 .1 0 0c0 .1 0 0 0 0m.1-.2c-.1 0-.1.1 0 0-.1.1-.1 0 0 0m0-.1c0 .1 0 .1 0 0 0 .1 0 .1 0 0m0-.2s0 .1 0 0c0 .1 0 0 0 0m-48.8-13.4c-2.3 3.9-3.7 8.5-3.7 13.4 0 .8 0 1.7.1 2.5.4 4.3 1.9 8.4 4.1 11.8 3.9 6 10.3 10.3 17.7 11.6 1.4.2 2.8.4 4.3.4-1.5 0-2.9-.1-4.3-.4-7.4-1.2-13.7-5.5-17.7-11.6 2.1.7 6.3 1.8 11.6 1.8 4.3 0 9.2-.7 14.2-3.1l-26.3-26.4m22.5-12.8c-5.2 0-10.1 1.5-14.2 4.2l.1.1 27.9 27.9c5.2-5.2 8.3-11.1 10.2-16.6-4-8.9-12.8-15.2-23.1-15.5-.3-.1-.6-.1-.9-.1" fill="url(#SVGID_1_)"/><path d="M249.3 129.5c-.2.4-.5.7-.8 1-.3.3-.7.6-1 .8-1 .6-2.1.9-3.3.9-1.5 0-3.1-.6-4.3-1.8L203 93.5c-2-2-2.3-5.2-.8-7.5.2-.4.5-.7.8-1 .3-.3.7-.6 1-.8 1-.6 2.1-.9 3.2-1 1.5 0 3.1.6 4.3 1.8l36.9 36.9c2.2 2.2 2.4 5.3.9 7.6" fill="#75a8f9"/><path class="st3" d="M249.3 129.5c-.2.4-.5.7-.8 1-.3.3-.7.6-1 .8l-45.2-45.2c.2-.4.5-.7.8-1 .3-.3.7-.6 1-.8l45.2 45.2"/><linearGradient id="SVGID_2_" gradientUnits="userSpaceOnUse" x1=".114" y1=".481" x2="1.114" y2=".481" gradientTransform="matrix(52.4422 0 0 -52.4422 193.51 140.101)"><stop offset="0" stop-color="#1779db"/><stop offset="1" stop-color="#2c33cf"/></linearGradient><path d="M229.6 120.1c-5 2.3-9.9 3.1-14.2 3.1-5.3 0-9.5-1.1-11.6-1.8 3.9 6 10.3 10.3 17.7 11.6 1.4.2 2.8.4 4.3.4h.2c4.8-.1 9.2-1.4 13.1-3.7l-9.5-9.6m20.1-23.7c-1.9 5.5-5 11.4-10.2 16.6l8.3 8.3c2.5-3.9 4-8.5 4.2-13.5v-.4c0-1-.1-2.1-.2-3.1-.3-2.9-1-5.5-2.1-7.9" fill="url(#SVGID_2_)"/><path d="M233.9 117.7c-1.4.9-2.9 1.7-4.3 2.4l9.5 9.5.9.9c1.2 1.2 2.7 1.8 4.3 1.8 1.1 0 2.3-.3 3.3-.9l-13.7-13.7m5.6-4.7l-.2.2c-1.1 1.1-2.2 2.1-3.3 3l13.4 13.4c.6-1 1-2.1.9-3.3 0-1.5-.6-3.1-1.8-4.3l-.7-.7-8.3-8.3" fill="#1779db"/><path d="M236 116.2c-.7.6-1.4 1.1-2.1 1.5l13.6 13.6c.4-.2.7-.5 1-.8.3-.3.6-.7.8-1L236 116.2" fill="#2e0070"/><path class="st0" d="M175.8 149.7c-.2 0-.4-.1-.5-.2-.2-.3-.2-.7.1-.9l42.3-33.1c.3-.2.7-.2.9.1.2.3.2.7-.1.9l-42.3 33.1c-.1.1-.2.1-.4.1z"/><path class="st3" d="M177.9 149.1c0 1.1-.9 2.1-2.1 2.1-1.1 0-2.1-.9-2.1-2.1 0-1.1.9-2.1 2.1-2.1 1.2 0 2.1.9 2.1 2.1zm-10.1-41.3c0 1.1-.9 2.1-2.1 2.1-1.1 0-2.1-.9-2.1-2.1s.9-2.1 2.1-2.1c1.2.1 2.1 1 2.1 2.1zm51.1 56.6c0 1.1-.9 2.1-2.1 2.1s-2.1-.9-2.1-2.1.9-2.1 2.1-2.1 2.1 1 2.1 2.1z"/></g></switch></svg>