<svg version="1.1" id="Слой_2" xmlns="http://www.w3.org/2000/svg" xmlns:xlink="http://www.w3.org/1999/xlink" x="0" y="0" viewBox="0 0 435.4 449.4" xml:space="preserve"><style>.st2{clip-path:url(#SVGID_4_);fill:#fec02a}.st4{fill:#ffd23c}.st5{fill:#19d2c0}.st6{fill:#e9007f}.st7{fill:#4c59e0}.st8{fill:#fff}.st9{fill:#627af4}.st10{fill:#1d2bd6}.st11{fill:#fec02a}.st12{fill:#fd9107}.st13{fill:#c4d3d7}.st14{fill:#3a4abd}.st16{fill:#adb9d6}.st18{fill:#ce007f}.st19{fill:#566bf3}</style><switch><g><defs><path id="SVGID_1_" d="M9.5 36h425.9v413.4H9.5V36"/></defs><clipPath id="SVGID_2_"><use xlink:href="#SVGID_1_" overflow="visible"/></clipPath><path d="M140.8 393.9c-7.9 1.3-15.8 3.3-23.4 5.3-9.4 2.4-18.9 4.8-28.6 6-.3 5.2-.7 10.3-1.2 15.4-.3 3.6-.6 7.4.5 10.8 2 6.1 8.1 9.8 14 12.3 10 4.1 20.7 5.8 31.5 5.8h.2c14.2 0 28.6-2.9 42.2-7 12.2-3.6 24.2-8.2 34.5-15.6 6.8-4.8 12.7-10.8 19.1-16.1-4.2.3-8.4.5-12.6.5-4.7 0-9.5-.2-14.3-.6-21.6-1.9-42.6-7.6-61.9-16.8m25.6-2c-6 0-12.1.3-18.1 1 17.3 7.5 35.8 12.2 54.8 13.7 4.6.4 9.3.6 13.9.6 6.2 0 12.4-.3 18.5-1 1.5-1 3-2 4.6-2.9 1.2-.7 2.4-1.3 3.6-1.9-11.7-2.8-23.6-4.5-34.9-6-13.7-1.9-28-3.5-42.4-3.5M51.1 295.3c-2.2 8.2-4.3 16.6-5.6 25.1-.5 2.9-.8 5.9-1.1 8.9 14.4 10.1 29.6 19.8 37.7 34.9 6.5 12.1 7.4 26 6.8 39.9 9.5-1.2 19-3.6 28.3-5.9 7.2-1.8 14.7-3.7 22.1-5-18.3-9-35-21.1-49.4-36-12.8-13.2-23.4-28.3-31.5-44.7-2.7-5.6-5.2-11.3-7.3-17.2m331.9-.4c-4.2 11.5-9.6 22.5-16.1 33-.3.4-.5.9-.8 1.3 6.6 5.3 10.8 13.4 10.8 22.4 0 15.9-12.9 28.8-28.8 28.8-7.9 0-15.1-3.2-20.3-8.4-7.5 6.1-15.5 11.5-23.9 16.3-4 2.3-8.1 4.4-12.3 6.3 5.4.2 10.8.6 16.1.9 8.6.5 17.1.7 25.7.7 11.8 0 23.7-.4 35.4-1.3 6.1-.5 12.3-1 18.3-2.1.3-4.3.2-8.7 0-12.6l-3.7-68.8c-.1-5.4-.4-11-.4-16.5m3.8-11.7c-.8 2.9-1.8 5.8-2.7 8.7-.2 6.5.2 13 .5 19.4l3.7 68.8c.2 3.9.3 8.1 0 12.4 7-1.3 13.8-3.1 20.2-6.1 12.3-5.7 23-16.1 26.1-29.3 3.8-16.5-5.2-33.6-17.7-45.1-6.6-6.1-14.2-11.1-20.6-17.5-3.6-3.4-6.7-7.2-9.5-11.3M50 278.8c.7 2.6 1.5 5.2 2.3 7.8.6-2.4 1.3-4.9 1.9-7.4h-.6c-1.2.1-2.4 0-3.6-.4m-3.7-71.1c-1.4 8.8-2.1 17.7-2.1 26.8 0 7.1.4 14.2 1.3 21.3 2.2-1.7 5-2.7 8-2.7 1.8 0 3.4.3 5 1 1-13.7-.4-32.5-12.2-46.4m-6.3-6.3c-1.8 4.5-3.8 8.9-6 13.3-12.6 25.8-30.8 53.9-20.8 80.8 5.4 14.4 17.3 24 30.2 33.1.3-2.8.6-5.6 1-8.3 1.4-9 3.7-17.9 6-26.6-2-5.7-3.7-11.4-5.2-17.3-1.3-1-2.3-2.3-3.1-3.7-.2-.3-.4-.7-.6-1.1-.8-1.7-1.2-3.6-1.2-5.5 0-2.3.6-4.5 1.7-6.4 0-.2-.1-.4-.1-.7-1.1-8.1-1.7-16.4-1.7-24.6 0-10.3.9-20.4 2.6-30.4-.8-.9-1.8-1.7-2.8-2.6m144.7-79.7c-3.2.9-6.4 2-9.6 3.2-22.3 8.5-41.2 23.5-54.8 43.2-13.4 19.6-20.5 42.5-20.5 66.3 0 5.5.4 11 1.1 16.3 3.4 24.6 14.4 47.1 31.8 65.1 18.5 19.1 42.7 31.3 68.9 34.8v-44.8h41.9v42.8c10.9-2.5 21.5-6.6 31.2-12.1 17-9.6 31.4-23.5 41.8-40 11.6-18.6 17.7-40 17.7-62 0-5.8-.4-11.6-1.3-17.2-4.1-27.5-17.9-52.8-39-71.2-9.2-8-19.5-14.5-30.5-19.2l.6.9h.9c.8 0 1.5.7 1.5 1.5s-.7 1.5-1.5 1.5v60.8l17.4 15.8c.3-.3.7-.5 1.1-.5.8 0 1.5.7 1.5 1.5v1.4l23.9 21.6v65.1c-.3 3.5-3.2 6.2-6.7 6.2V287l-17.8-25.3c-.2.2-.6.3-.9.3-.8 0-1.5-.7-1.5-1.5v-1.9c-4.3-4.8-10.5-7.7-17-7.7V265h2.8c2.3 0 4.5 1.4 5 3.6.1.4.2.9.2 1.3 0 1.4-.5 2.6-1.4 3.5-.9.9-2.1 1.4-3.5 1.4h-15.1c.5 1.1 1.3 2.1 2.2 3 2.1 1.9 3.5 4.3 3.5 7.1v21h-72.2v-21c0-2.8 1.4-5.3 3.4-7.2 1-.9 1.7-1.9 2.3-3h-14.8c-2.3 0-4.5-1.4-5-3.6-.5-1.9.1-3.6 1.3-4.7.9-.9 2.1-1.4 3.5-1.4h3.1v-14.1c-6.5 0-12.7 2.8-16.9 7.6v2c0 .8-.7 1.5-1.5 1.5-.3 0-.7-.1-.9-.3l-24.5 34.8v-65.1l23.9-21.7v-1.3c0-.8.7-1.5 1.5-1.5.4 0 .8.2 1.1.5l17.4-15.7v-60.8c-.8 0-1.5-.7-1.5-1.5s.7-1.5 1.5-1.5h.9l3.5-6.2m151.7-17.6c18 16.5 32.3 36.4 42.1 58.4 2.1-4.5 4.7-8.7 7.8-12.6 6.4-8 14.9-14.2 20.8-22.6.3-.4.5-.8.8-1.1-1.9-1.4-3.8-2.7-5.8-3.9-10.2-5.8-22.1-7.9-33.6-9.9-4.6-.8-9.4-1.6-14.1-2.7-6.2-1.4-12.2-3.3-18-5.6M310.2 89c1.6 1.1 3.2 2.2 4.8 3.2-1.6-1.1-3.2-2.2-4.8-3.2m-94.6 289.6h-2c-.6 0-1-.5-1-1s.5-1 1-1h2c.6 0 1 .5 1 1s-.5 1-1 1m12-.4c-.5 0-1-.4-1-.9s.4-1 .9-1.1c.7 0 1.3-.1 2-.2h.1c.5 0 .9.4 1 .9 0 .5-.4 1-.9 1.1-.7.1-1.3.1-2.1.2m-26-.5h-.1c-.7-.1-1.3-.1-2-.2-.5-.1-.9-.6-.9-1.1.1-.5.5-.9 1-.9h.1c.7.1 1.3.2 2 .2.5.1.9.6.9 1.1-.1.6-.5.9-1 .9m40-1.2c-.5 0-.9-.3-1-.8-.1-.5.3-1.1.8-1.2.7-.1 1.3-.2 2-.4h.2c.5 0 .9.3 1 .8.1.5-.3 1.1-.8 1.2-.7.1-1.3.2-2 .4h-.2m-53.9-.9h-.2c-.7-.1-1.3-.3-2-.4-.5-.1-.9-.7-.8-1.2.1-.5.5-.8 1-.8h.2c.6.1 1.3.3 2 .4.5.1.9.6.8 1.2-.1.4-.6.8-1 .8m67.6-2.2c-.4 0-.8-.3-1-.7-.1-.5.2-1.1.7-1.2.6-.2 1.3-.4 1.9-.5h.3c.4 0 .8.3 1 .7.2.5-.1 1.1-.7 1.2-.6.2-1.3.4-1.9.6l-.3-.1m-81.2-1.4h-.3c-.6-.2-1.3-.4-1.9-.6-.5-.2-.8-.7-.6-1.3.1-.4.5-.7.9-.7.1 0 .2 0 .3.1.6.2 1.3.4 1.9.6.5.2.8.7.7 1.3-.2.4-.6.6-1 .6m94.5-3c-.4 0-.8-.2-.9-.6-.2-.5.1-1.1.6-1.3.6-.2 1.2-.5 1.8-.7.1 0 .2-.1.4-.1.4 0 .8.2.9.6.2.5 0 1.1-.6 1.3-.6.3-1.2.5-1.9.7-.1.1-.2.1-.3.1m-107.7-1.8c-.1 0-.3 0-.4-.1-.6-.3-1.2-.5-1.9-.8-.5-.2-.7-.8-.5-1.3.2-.4.5-.6.9-.6.1 0 .3 0 .4.1.6.3 1.2.5 1.8.8.5.2.7.8.5 1.3 0 .3-.4.6-.8.6m120.5-3.9c-.4 0-.7-.2-.9-.5-.2-.5-.1-1.1.4-1.3l1.8-.9c.1-.1.3-.1.5-.1.4 0 .7.2.9.5.3.5.1 1.1-.4 1.3l-1.8.9c-.2 0-.3.1-.5.1M148.3 361c-.2 0-.3 0-.5-.1-.6-.3-1.2-.7-1.8-1-.5-.3-.6-.9-.4-1.4.2-.3.5-.5.9-.5.2 0 .3 0 .5.1.6.3 1.2.7 1.7 1 .5.3.7.9.4 1.4-.2.3-.5.5-.8.5m145.3-4.7c-.3 0-.7-.2-.8-.5-.3-.5-.2-1.1.3-1.4.6-.4 1.1-.7 1.7-1.1.2-.1.4-.2.5-.2.3 0 .6.2.8.5.3.5.2 1.1-.3 1.4-.6.4-1.1.7-1.7 1.1-.1.2-.3.2-.5.2m-157.3-2.6c-.2 0-.4-.1-.6-.2-.6-.4-1.1-.8-1.7-1.2-.5-.3-.6-.9-.2-1.4.2-.3.5-.4.8-.4.2 0 .4.1.6.2.5.4 1.1.8 1.6 1.1.5.3.6.9.3 1.4-.2.3-.5.5-.8.5m168.8-5.5c-.3 0-.6-.1-.8-.4-.3-.4-.3-1.1.2-1.4.5-.4 1-.8 1.6-1.2.2-.1.4-.2.6-.2.3 0 .6.1.8.4.3.4.3 1.1-.2 1.4-.5.4-1.1.8-1.6 1.3-.2.1-.4.1-.6.1m-180-3c-.2 0-.5-.1-.6-.2-.5-.4-1-.9-1.5-1.3-.4-.4-.5-1-.1-1.4.2-.2.5-.3.8-.3.2 0 .5.1.7.2.5.4 1 .9 1.5 1.3.4.4.5 1 .1 1.4-.3.2-.6.3-.9.3m190.6-6.2c-.3 0-.5-.1-.7-.3-.4-.4-.4-1 0-1.4.5-.5 1-.9 1.4-1.4.2-.2.4-.3.7-.3.3 0 .5.1.7.3.4.4.4 1 0 1.4-.5.5-1 .9-1.5 1.4-.1.3-.3.3-.6.3m9.7-10.1c-.2 0-.5-.1-.7-.2-.4-.4-.5-1-.1-1.4.4-.5.9-1 1.3-1.5.2-.2.5-.4.8-.4.2 0 .5.1.6.2.4.4.5 1 .1 1.4-.4.5-.9 1-1.3 1.5-.1.3-.4.4-.7.4m-220-3.8c-.3 0-.6-.1-.8-.4-.4-.5-.8-1.1-1.3-1.6-.3-.4-.3-1.1.2-1.4.2-.1.4-.2.6-.2.3 0 .6.1.8.4.4.5.8 1 1.2 1.6.3.4.3 1.1-.2 1.4-.1.1-.3.2-.5.2m228.7-7.3c-.2 0-.4-.1-.6-.2-.5-.3-.6-.9-.2-1.4.4-.5.8-1.1 1.1-1.6.2-.3.5-.4.8-.4.2 0 .4.1.6.2.5.3.6.9.3 1.4-.4.6-.8 1.1-1.2 1.7-.2.1-.5.3-.8.3m-237-4.1c-.3 0-.6-.2-.8-.5-.4-.6-.7-1.1-1.1-1.7-.3-.5-.2-1.1.3-1.4.2-.1.4-.2.5-.2.3 0 .7.2.8.5.4.6.7 1.1 1.1 1.7.3.5.2 1.1-.3 1.4-.1.1-.3.2-.5.2m244.5-7.8c-.2 0-.3 0-.5-.1-.5-.3-.6-.9-.4-1.4.3-.6.7-1.2 1-1.7.2-.3.5-.5.9-.5.2 0 .3 0 .5.1.5.3.7.9.4 1.4-.3.6-.7 1.2-1 1.8-.2.2-.6.4-.9.4M90 301.6c-.4 0-.7-.2-.9-.5l-.9-1.8c-.2-.5-.1-1.1.4-1.3.1-.1.3-.1.4-.1.4 0 .7.2.9.5l.9 1.8c.3.5.1 1.1-.4 1.3-.1 0-.2.1-.4.1m257.9-8.2c-.1 0-.3 0-.4-.1-.5-.2-.7-.8-.5-1.3.3-.6.5-1.2.8-1.8.2-.4.5-.6.9-.6.1 0 .3 0 .4.1.5.2.7.8.5 1.3-.3.6-.5 1.2-.8 1.9-.1.3-.5.5-.9.5m-263.8-4.6c-.4 0-.8-.2-.9-.6-.3-.6-.5-1.3-.7-1.9-.2-.5.1-1.1.6-1.3.1 0 .2-.1.4-.1.4 0 .8.2.9.6.2.6.5 1.2.7 1.9.2.5 0 1.1-.6 1.3-.1.1-.2.1-.4.1m268.9-8.5c-.1 0-.2 0-.3-.1-.5-.2-.8-.7-.6-1.3.2-.6.4-1.3.6-1.9.1-.4.5-.7.9-.7h.3c.5.2.8.7.7 1.3-.2.6-.4 1.3-.6 1.9-.2.5-.6.8-1 .8m-273.5-4.7c-.4 0-.8-.3-1-.7-.2-.6-.4-1.3-.6-1.9-.1-.5.2-1.1.7-1.2h.3c.4 0 .8.3 1 .7.2.6.4 1.3.5 1.9.2.5-.1 1.1-.7 1.2 0-.1-.1 0-.2 0m277.2-8.9h-.2c-.5-.1-.9-.7-.8-1.2.1-.6.3-1.3.4-2 .1-.5.5-.8 1-.8h.2c.5.1.9.6.8 1.2-.1.7-.3 1.3-.4 2-.1.5-.5.8-1 .8m-280.4-4.8c-.5 0-.9-.3-1-.8-.1-.7-.2-1.3-.4-2-.1-.5.3-1.1.8-1.2h.2c.5 0 .9.3 1 .8.1.7.2 1.3.4 2 .1.5-.3 1.1-.8 1.2h-.2m282.8-9h-.1c-.5-.1-.9-.6-.9-1.1.1-.7.2-1.3.2-2 .1-.5.5-.9 1-.9h.1c.5.1.9.6.9 1.1-.1.7-.1 1.3-.2 2-.1.5-.5.9-1 .9M74.4 248c-.5 0-.9-.4-1-.9-.1-.7-.1-1.3-.2-2 0-.5.4-1 .9-1.1h.1c.5 0 1 .4 1 .9 0 .7.1 1.3.2 2 0 .5-.4 1-1 1.1m285.7-9.2c-.6 0-1-.5-1-1v-2c0-.5.5-1 1-1 .6 0 1 .5 1 1v2c0 .6-.5 1-1 1m-286.3-4.9c-.6 0-1-.5-1-1v-2c0-.5.5-1 1-1 .6 0 1 .5 1 1v2c0 .6-.4 1-1 1m286-9.1c-.5 0-1-.4-1-.9 0-.7-.1-1.3-.2-2 0-.5.4-1 .9-1.1h.1c.5 0 .9.4 1 .9.1.7.1 1.3.2 2 0 .6-.4 1-1 1.1m-285.1-4.9h-.1c-.5-.1-.9-.6-.9-1.1.1-.7.1-1.3.2-2 .1-.5.5-.9 1-.9h.1c.5.1.9.6.9 1.1-.1.7-.2 1.3-.2 2-.1.5-.5.9-1 .9m283.3-9.1c-.5 0-.9-.3-1-.8-.1-.7-.2-1.3-.4-2-.1-.5.3-1.1.8-1.2h.2c.5 0 .9.3 1 .8.1.7.2 1.3.4 2 .1.5-.3 1.1-.8 1.2h-.2M76.9 206h-.2c-.5-.1-.9-.6-.8-1.2.1-.7.3-1.3.4-2 .1-.5.5-.8 1-.8h.2c.5.1.9.7.8 1.2-.1.6-.3 1.3-.4 2-.2.5-.6.8-1 .8m3.5-13.6h-.3c-.5-.2-.8-.7-.7-1.3.2-.6.4-1.3.6-1.9.1-.4.5-.7.9-.7.1 0 .2 0 .3.1.5.2.8.7.6 1.3-.2.6-.4 1.3-.6 1.9 0 .3-.4.6-.8.6m272.9 4.2c-4.9 0-9.1-2.7-11.4-6.6-.2-.3-.4-.7-.6-1.1-.8-1.7-1.2-3.6-1.2-5.5 0-7.3 5.9-13.2 13.2-13.2 7.3 0 13.2 5.9 13.2 13.2 0 6.4-4.5 11.7-10.5 12.9-.1.4-.3.7-.7.8h-.3c-.4 0-.7-.2-.9-.5h-.8m-8.4-25.6c-.4 0-.7-.2-.9-.5l-.9-1.8c-.3-.5-.1-1.1.4-1.3.1-.1.3-.1.5-.1.4 0 .7.2.9.5l.9 1.8c.2.5.1 1.1-.4 1.3-.2.1-.4.1-.5.1m-7-12.2c-.3 0-.7-.2-.8-.5-.4-.6-.7-1.1-1.1-1.7-.3-.5-.2-1.1.3-1.4.2-.1.4-.2.5-.2.3 0 .6.2.8.5.4.6.7 1.1 1.1 1.7.3.5.2 1.1-.3 1.4-.1.1-.3.2-.5.2m-8.1-11.5c-.3 0-.6-.1-.8-.4-.4-.5-.8-1-1.2-1.6-.3-.4-.3-1.1.2-1.4.2-.1.4-.2.6-.2.3 0 .6.1.8.4.4.5.8 1.1 1.3 1.6.3.4.3 1.1-.2 1.4-.2.1-.5.2-.7.2m-222.5-3.9c-.2 0-.5-.1-.6-.2-.4-.4-.5-1-.1-1.4.4-.5.9-1 1.3-1.5.2-.2.5-.3.8-.3.2 0 .5.1.7.2.4.4.5 1 .1 1.4-.4.5-.9 1-1.3 1.5-.4.2-.6.3-.9.3m213.3-6.7c-.3 0-.5-.1-.7-.3-.5-.5-.9-1-1.4-1.4-.4-.4-.4-1 0-1.4.2-.2.4-.3.7-.3.3 0 .5.1.7.3.5.5.9 1 1.4 1.5.4.4.4 1 0 1.4-.2.1-.4.2-.7.2m-203.8-3.6c-.3 0-.5-.1-.7-.3-.4-.4-.4-1 0-1.4.5-.5 1-.9 1.5-1.4.2-.2.4-.3.7-.3.3 0 .5.1.7.3.4.4.4 1 0 1.4-.5.5-1 .9-1.4 1.4-.3.2-.5.3-.8.3m193.7-6.1c-.2 0-.5-.1-.7-.2-.5-.4-1-.9-1.5-1.3-.4-.4-.5-1-.1-1.4.2-.2.5-.4.8-.4.2 0 .5.1.6.2.5.4 1 .9 1.5 1.3.4.4.5 1 .1 1.4-.2.3-.5.4-.7.4m-183.2-3.2c-.3 0-.6-.1-.8-.4-.3-.4-.3-1.1.2-1.4.5-.4 1.1-.8 1.6-1.3.2-.1.4-.2.6-.2.3 0 .6.1.8.4.3.4.3 1.1-.2 1.4-.5.4-1 .8-1.6 1.2-.1.2-.4.3-.6.3m172.1-5.5c-.2 0-.4-.1-.6-.2-.5-.4-1.1-.8-1.6-1.1-.5-.3-.6-.9-.3-1.4.2-.3.5-.4.8-.4.2 0 .4.1.6.2.6.4 1.1.8 1.7 1.2.5.3.6.9.2 1.4-.2.2-.5.3-.8.3m-160.7-2.8c-.3 0-.6-.2-.8-.5-.3-.5-.2-1.1.3-1.4.6-.4 1.1-.7 1.7-1.1.2-.1.4-.2.5-.2.3 0 .7.2.8.5.3.5.2 1.1-.3 1.4-.6.4-1.1.7-1.7 1.1-.1.2-.3.2-.5.2m148.8-4.7c-.2 0-.3 0-.5-.1-.6-.3-1.2-.7-1.7-1-.5-.3-.7-.9-.4-1.4.2-.3.5-.5.9-.5.2 0 .3 0 .5.1.6.3 1.2.7 1.8 1 .5.3.6.9.4 1.4-.3.3-.6.5-1 .5m-136.7-2.4c-.4 0-.7-.2-.9-.5-.3-.5-.1-1.1.4-1.3l1.8-.9c.1-.1.3-.1.4-.1.4 0 .7.2.9.5.2.5.1 1.1-.4 1.3l-1.8.9c-.1.1-.2.1-.4.1m124.2-3.9c-.1 0-.3 0-.4-.1-.6-.3-1.2-.5-1.8-.8-.5-.2-.7-.8-.5-1.3.2-.4.5-.6.9-.6.1 0 .3 0 .4.1.6.3 1.2.5 1.9.8.5.2.7.8.5 1.3-.3.4-.6.6-1 .6m-111.4-1.9c-.4 0-.8-.2-.9-.6-.2-.5 0-1.1.6-1.3.6-.3 1.3-.5 1.9-.7.1 0 .2-.1.4-.1.4 0 .8.2.9.6.2.5-.1 1.1-.6 1.3-.6.2-1.2.5-1.9.7-.2 0-.3.1-.4.1m98.3-3.2c-.1 0-.2 0-.3-.1-.6-.2-1.3-.4-1.9-.6-.5-.2-.8-.7-.7-1.3.1-.4.5-.7 1-.7h.3c.6.2 1.3.4 1.9.6.5.2.8.7.6 1.3-.1.6-.5.8-.9.8M176.8 98c-.4 0-.8-.3-1-.7-.2-.5.1-1.1.7-1.2.6-.2 1.3-.4 1.9-.6h.3c.4 0 .8.3 1 .7.1.5-.2 1.1-.7 1.2-.6.2-1.3.4-1.9.5-.1 0-.2.1-.3.1m71.5-2.3h-.2c-.6-.1-1.3-.3-1.9-.4-.5-.1-.9-.6-.8-1.2.1-.5.5-.8 1-.8h.2c.7.1 1.3.3 2 .4.5.1.9.7.8 1.2-.2.5-.6.8-1.1.8m-57.8-1c-.5 0-.9-.3-1-.8-.1-.5.3-1.1.8-1.2.7-.1 1.3-.2 2-.4h.2c.5 0 .9.3 1 .8.1.5-.3 1.1-.8 1.2-.7.1-1.3.2-2 .4h-.2m23-18.6c2.7-2 5.8-2.9 9-2.9 2 0 4 .4 5.8 1.2 2.3.9 4.3 2.4 6 4.5l6.2 10.3 19.4 32c13.3 5 25.7 12.4 36.6 21.9 21.8 19 36.2 45.1 40.3 73.6.9 5.8 1.3 11.8 1.3 17.8 0 22.7-6.3 44.9-18.3 64.1-10.7 17.1-25.6 31.4-43.2 41.4-10.4 5.9-21.6 10.2-33.2 12.8v14h-41.9v-12.1c-27.2-3.5-52.5-16.1-71.7-36-17.9-18.6-29.3-41.8-32.8-67.3a119 119 0 0 1-1.2-16.9c0-24.6 7.3-48.3 21.2-68.6 14-20.4 33.6-35.8 56.6-44.7 4.6-1.8 9.3-3.2 14-4.4l16.8-27.7 6.2-10.3c.9-1 1.9-1.9 2.9-2.7m3.5-14.4c-21.3 0-42.1 3.8-61.7 11.4C139 79.3 123.7 88 110 98.9c-13.6 10.8-25.5 23.5-35.4 37.8-2 2.9-3.9 5.8-5.7 8.8 3.3-3.1 7.8-4.9 12.7-4.9 7.7 0 14.3 4.7 17.2 11.3.1-.2.2-.3.3-.5.2-.3.5-.4.8-.4.2 0 .4.1.6.2.5.3.6.9.2 1.4-.3.5-.7 1-1 1.4l-.1.2c.5 1.6.7 3.3.7 5.1 0 8.5-5.7 15.8-13.5 18-.2.4-.4.9-.6 1.3-.2.4-.5.6-.9.6-.1 0-.3 0-.4-.1-.5-.2-.7-.8-.5-1.3-.9.1-1.8.2-2.8.2-6.9 0-13-3.8-16.2-9.4-.3-.5-.5-1-.8-1.5-1.1-2.4-1.7-5-1.7-7.9 0-1.2.1-2.4.3-3.5a173.2 173.2 0 0 0-16.6 50.5c12.6 14.4 14 34.1 13 48 4.3 2.2 7.2 6.6 7.2 11.8 0 6.7-5 12.3-11.5 13.1-.8 3.1-1.6 6.2-2.4 9.2 2.5 7.6 5.5 15 9.1 22.2 7.9 16.1 18.3 30.8 30.7 43.7 15.5 16 33.7 28.8 53.7 37.7 6.7-.8 13.3-1.2 19.9-1.2 14.5 0 28.8 1.6 42.5 3.4 11.8 1.5 24.1 3.3 36.3 6.3 11.1-5 23.4-6.3 35.9-6.3h1.3c6.7-2.8 13.3-5.9 19.7-9.5 8.2-4.6 15.9-9.9 23.2-15.8-.7-.9-1.4-1.9-2-3-.4-.8-.8-1.5-1.2-2.3-1.7-3.7-2.6-7.7-2.6-12.1 0-15.9 12.9-28.8 28.8-28.8 5.4 0 10.4 1.5 14.7 4 .2-.4.5-.8.7-1.1 9.2-14.7 16-30.6 20.4-47.1-11.5-19.9-14.7-44.9-14.4-68.4.2-14.4 1.7-29.4 6.7-42.7-10.2-24.2-25.8-46-45.9-63.5-2.5-2.2-5-4.3-7.6-6.3-7.3-3.9-14.3-8.5-20.7-13.8-25.9-14.2-55.1-22-85.1-22m47.4-9.7c-5.3 2.2-10.5 4.5-16 6-2.3.6-4.5 1.1-6.9 1.4 16.9 2.4 33.4 7.2 48.8 14.2-.7-.6-1.4-1.3-2-1.9-5.9-5.6-12-11.4-18.7-16.2-1.7-1.2-3.5-2.4-5.2-3.5m-109.7-5c-1.5.6-3 1.2-4.4 1.8-35.7 14.9-65.4 40.3-93.7 65.8v6.7c-.5 27.1-6 54.1-16.1 79.2.9.8 1.8 1.5 2.7 2.4 4.4-24.4 13.9-47.6 28.2-68.3 10.1-14.6 22.2-27.7 36.2-38.7 14.1-11.1 29.7-20 46.4-26.4 17-6.5 34.8-10.3 53.1-11.4-17.7-3.1-35-8-52.4-11.1m139.1-1.7c-5.6 0-11.2.7-16.8 2.2-3.9 1.1-7.7 2.5-11.5 4.1 1.6 1 3.1 2.1 4.7 3.2C276.9 59.6 283 65.4 289 71c1.4 1.3 2.8 2.7 4.3 4 14.3 6.8 27.6 15.6 39.7 26.1.4.4.8.7 1.2 1.1 6.6 2.7 13.4 4.9 20.3 6.5 4.6 1.1 9.4 1.9 14 2.7 11.6 2 23.6 4.1 33.9 10 2.1 1.2 4 2.5 5.9 3.9 29.3-43.5-29.9-50.5-59.1-64.3-17.3-8.2-36.5-15.7-55.4-15.7m-166-.9C100 44.4 69.4 57 60.2 83.2c-3.4 9.6-3.6 19.8-3.6 30 28.2-25.3 57.7-50.5 93.3-65.3.9-.4 1.9-.8 2.8-1.2-7.8-1.3-15.6-2.2-23.4-2.3h-1.5" clip-path="url(#SVGID_2_)" fill="#e8f1fa"/><path d="M166.4 390.9c-6.6 0-13.3.3-19.9 1.2.6.3 1.2.5 1.8.8 6.1-.7 12.1-1 18.1-1 14.4 0 28.7 1.6 42.4 3.4 11.4 1.5 23.2 3.1 34.9 6 2.8.7 5.6 1.4 8.4 2.3.7-.1 1.3-.3 2-.4-3-.9-6-1.8-9-2.5-12.2-3-24.5-4.8-36.3-6.3-13.6-1.9-27.9-3.5-42.4-3.5M50.5 293.7c-2.3 8.7-4.6 17.6-6 26.6-.4 2.8-.8 5.6-1 8.3-1.5 15.6-.7 31.1.2 44.7.6 9.2 1.8 18.6 8.1 24.9 4.2 4.1 10.4 6.5 18.9 7.3 2.3.2 4.6.3 6.8.3 3.8 0 7.6-.3 11.4-.7 9.6-1.2 19.2-3.6 28.6-6 7.7-1.9 15.6-4 23.4-5.3-.5-.2-1-.5-1.5-.7-7.4 1.3-14.9 3.2-22.1 5-9.3 2.4-18.7 4.8-28.3 5.9-3.8.5-7.6.7-11.5.7-2.2 0-4.5-.1-6.7-.3-8.3-.8-14.2-3.1-18.2-7-6.1-6-7.2-15.3-7.8-24.2-.9-13.4-1.7-28.7-.3-44 .3-3 .6-5.9 1.1-8.9 1.3-8.4 3.4-16.9 5.6-25.1-.3-.4-.5-1-.7-1.5m333.6-1.7c-.3 1-.7 2-1.1 3 0 5.5.3 11 .6 16.5l3.7 68.8c.2 3.9.3 8.2 0 12.6-.7 10.5-3.7 21-13 25.6-4.3 2.1-9.4 2.4-13.9 2.7-9.8.6-19.7 1.3-29.6 1.3-12.9 0-25.7-1.1-38.2-4.8-6.6-2-13.1-4.6-19.4-7.3-3.9-1.6-8-3.3-12-4.8-.6.1-1.2.3-1.7.4 4.5 1.6 9 3.5 13.4 5.3 6.3 2.6 12.8 5.3 19.5 7.3 12.5 3.7 25.8 4.8 38.8 4.8 10 0 20-.7 29.3-1.3 4.6-.3 9.8-.6 14.3-2.8 9.8-4.8 12.9-15.8 13.6-26.7.3-4.3.2-8.6 0-12.4l-3.7-68.8c-.5-6.4-.8-13-.6-19.4M55.3 279.2c-.3 0-.7.1-1.1.1-.6 2.5-1.2 4.9-1.9 7.4l.6 1.8 2.4-9.3m-8.8-72.8c-.1.4-.1.9-.2 1.3 11.7 14 13.2 32.8 12.2 46.3.3.1.7.3 1 .4 1-14-.4-33.6-13-48m287.7-104.2c.7.6 1.5 1.3 2.2 2 5.8 2.3 11.8 4.2 17.9 5.6 4.6 1.1 9.4 1.9 14.1 2.7 11.5 2 23.4 4.1 33.6 9.9 2 1.2 4 2.5 5.8 3.9 12.5 9.6 21 25.4 22.6 42.6 1.7 17.5-3.3 36.6-14.1 54-3.3 5.4-7.2 10.6-11 15.7-4.7 6.3-9.4 12.7-13.3 19.6-.1 1-.3 1.9-.4 2.9 4-7.7 9.3-14.9 14.5-21.9 3.8-5.1 7.6-10.3 11-15.8 10.9-17.6 16-37 14.3-54.6-1.7-17.5-10.3-33.6-23-43.4-1.9-1.5-3.9-2.8-5.9-3.9-10.4-5.9-22.3-8-33.9-10-4.6-.8-9.4-1.6-14-2.7-7-1.7-13.8-3.9-20.4-6.6M302 84.1c6.4 5.3 13.4 9.9 20.7 13.8-2.5-2-5.1-3.8-7.7-5.7-1.6-1-3.2-2.1-4.8-3.2-2.7-1.7-5.5-3.4-8.2-4.9M207.9 36c-19.7 0-39.1 4.4-55.2 10.7-1 .4-1.9.8-2.8 1.2-35.6 14.9-65.1 40-93.3 65.3-2.8 2.5-5.5 5-8.3 7.5l.3.4-.3-.4c-2.7 2.4-5.9 5-9.3 7.8-12.2 9.9-27.4 22.1-28.5 36.1-.5 6.6 2.2 13.2 8 19.5 3.9 4.3 8.7 7.7 13.3 11.1 2.7 2 5.6 4 8.2 6.3 1 .8 1.9 1.7 2.9 2.6.1-.4.1-.8.2-1.2l-2.7-2.4c-2.6-2.2-5.3-4.1-8-6.1-4.6-3.3-9.3-6.8-13.2-11-5.7-6.2-8.2-12.4-7.8-18.8 1-13.6 16-25.7 28.1-35.4 3.4-2.8 6.6-5.4 9.4-7.8 2.5-2.3 5-4.6 7.6-6.8 28.3-25.5 58-50.8 93.7-65.8 1.4-.6 2.9-1.2 4.4-1.8 15.7-6 34.3-10 53.3-10 19.4 0 39.1 4.2 56.5 15 1.8 1.1 3.5 2.3 5.2 3.5 6.7 4.8 12.8 10.6 18.7 16.2.7.6 1.4 1.3 2 1.9 1 .4 1.9.9 2.9 1.4-1.4-1.3-2.9-2.7-4.3-4-5.9-5.6-12-11.4-18.8-16.3-1.5-1.1-3.1-2.2-4.7-3.2C247.8 40.4 227.7 36 207.9 36" clip-path="url(#SVGID_2_)" fill="#e5eefe"/><defs><path id="SVGID_3_" d="M9.5 7.8h425.9v441.6H9.5V7.8"/></defs><clipPath id="SVGID_4_"><use xlink:href="#SVGID_3_" overflow="visible"/></clipPath><path class="st2" d="M427.4 318.4c0 3-2.4 5.4-5.4 5.4-3 0-5.4-2.4-5.4-5.4 0-3 2.4-5.4 5.4-5.4 3 0 5.4 2.4 5.4 5.4"/><path d="M394.1 119.5c0 1.5-1.2 2.7-2.7 2.7-1.5 0-2.7-1.2-2.7-2.7 0-1.5 1.2-2.7 2.7-2.7 1.5.1 2.7 1.3 2.7 2.7" clip-path="url(#SVGID_4_)" fill="#31c9ac"/><path class="st2" d="M335.1 30.9c-2.1 0-3.7 1.7-3.7 3.7 0 2.1 1.7 3.8 3.7 3.8 2.1 0 3.8-1.7 3.8-3.8-.1-2-1.8-3.7-3.8-3.7"/><path class="st4" d="M330.9 415s-6.4 8.7-13.2 8.2c-6.7-.5-6.4 5.7-8.5 10-2 4.3-10.8 4.4-15.2 2l.7-6.4s8.1 3.4 10.4-2.7c2.4-6 4.1-12.4 12.4-10 8.3 2.4 10.1-7.8 10.1-7.8l3.3 6.7z"/><path class="st4" d="M339.8 403.2l-20.6 4.7 14.4 15.4z"/><path class="st5" d="M375.4 55.7c-1.8-.8-2.7-2.9-1.9-4.7l9.2-22c.8-1.8 2.9-2.7 4.7-1.9 1.8.8 2.7 2.9 1.9 4.7l-9.2 22c-.8 1.8-2.9 2.7-4.7 1.9"/><path class="st5" d="M367.6 35.7c.8-1.8 2.9-2.7 4.7-1.9l22 9.2c1.8.8 2.7 2.9 1.9 4.7-.8 1.8-2.9 2.7-4.7 1.9l-22-9.2c-1.8-.8-2.7-2.9-1.9-4.7"/><path class="st6" d="M401.7 216c-1.4-.6-2-2.2-1.4-3.5l6.9-16.6c.6-1.4 2.2-2 3.5-1.4 1.4.6 2 2.2 1.4 3.5l-6.9 16.6c-.6 1.3-2.2 1.9-3.5 1.4"/><path class="st6" d="M395.8 200.9c.6-1.4 2.2-2 3.5-1.4l16.6 6.9c1.4.6 2 2.2 1.4 3.5-.6 1.4-2.2 2-3.5 1.4l-16.6-6.9c-1.3-.6-2-2.2-1.4-3.5"/><path class="st7" d="M42.9 419.6c-1 .6-2.3.3-3-.7l-7.5-12.3c-.6-1-.3-2.3.7-3 1-.6 2.3-.3 3 .7l7.5 12.3c.7 1.1.4 2.4-.7 3"/><path class="st7" d="M30.4 416.4c-.6-1-.3-2.3.7-3l12.3-7.5c1-.6 2.3-.3 3 .7.6 1 .3 2.3-.7 3l-12.3 7.5c-1.1.6-2.4.3-3-.7m229.5-295.3l3.5 5.7c11 4.8 21.3 11.2 30.5 19.2 21.1 18.4 35 43.7 39 71.2.8 5.6 1.3 11.4 1.3 17.2 0 22-6.1 43.4-17.7 62-10.3 16.6-24.8 30.4-41.8 40-9.8 5.5-20.3 9.6-31.2 12.1v4.1c11.6-2.6 22.8-6.9 33.2-12.8 17.6-10 32.5-24.3 43.2-41.4 12-19.2 18.3-41.4 18.3-64.1 0-6-.4-12-1.3-17.8-4.2-28.5-18.5-54.6-40.3-73.6-11-9.4-23.4-16.8-36.7-21.8m-72.2-4.3c-4.7 1.2-9.4 2.7-14 4.4-23 8.8-42.6 24.3-56.6 44.7-13.9 20.2-21.2 43.9-21.2 68.6 0 5.6.4 11.3 1.2 16.9 3.5 25.5 14.9 48.7 32.8 67.3 19.2 19.9 44.5 32.6 71.7 36v-4c-26.1-3.5-50.4-15.7-68.9-34.8-17.3-18-28.3-40.5-31.8-65.1-.8-5.4-1.1-10.9-1.1-16.3 0-23.8 7.1-46.7 20.5-66.3 13.6-19.7 32.5-34.7 54.8-43.2 3.2-1.2 6.4-2.3 9.6-3.2l3-5m-73 218.8c-.3 0-.5-.1-.7-.3l-.7-.7-.7-.7c-.4-.4-.4-1 0-1.4.4-.4 1-.4 1.4 0l.7.7.7.7c.4.4.4 1 0 1.4-.2.2-.5.3-.7.3zm98.9 40.9c-.6 0-1 .4-1 1s.4 1 1 1h2c.5 0 1-.4 1-1s-.4-1-1-1c-.7.1-1.3 0-2 0m16-.5c-.8.1-1.4.1-2.1.2-.5 0-1 .5-.9 1.1 0 .5.5.9 1 .9h.1c.7 0 1.3-.1 2-.2.5 0 1-.5.9-1.1 0-.5-.5-.9-1-.9m-30-.5c-.5 0-.9.4-1 .9-.1.5.3 1 .9 1.1.7.1 1.3.2 2 .2h.1c.5 0 .9-.4 1-.9.1-.5-.3-1-.9-1.1-.7-.1-1.3-.1-2-.2h-.1m44-1.4h-.2c-.7.1-1.3.2-2 .4-.5.1-.9.6-.8 1.2.1.5.5.8 1 .8h.2c.7-.1 1.3-.2 2-.4.5-.1.9-.6.8-1.2-.2-.5-.6-.8-1-.8m-57.9-1c-.5 0-.9.3-1 .8-.1.5.2 1.1.8 1.2.7.1 1.3.3 2 .4h.2c.5 0 .9-.3 1-.8.1-.5-.2-1.1-.8-1.2-.7-.1-1.3-.3-2-.4 0 .1-.1 0-.2 0m71.5-2.3h-.3c-.6.2-1.3.4-1.9.5-.5.1-.8.7-.7 1.2.1.4.5.7 1 .7h.3c.6-.2 1.3-.4 1.9-.6.5-.2.8-.7.7-1.2-.2-.3-.6-.6-1-.6m-85-1.4c-.4 0-.8.3-.9.7-.2.5.1 1.1.6 1.3.6.2 1.3.4 1.9.6h.3c.4 0 .8-.3 1-.7.2-.5-.1-1.1-.7-1.3-.6-.2-1.3-.4-1.9-.6h-.3m98.3-3.2c-.1 0-.3 0-.4.1-.6.2-1.2.5-1.8.7-.5.2-.8.8-.6 1.3.2.4.5.6.9.6.1 0 .2 0 .4-.1.6-.2 1.3-.5 1.9-.7.5-.2.8-.8.6-1.3-.3-.3-.6-.6-1-.6m-111.4-1.8c-.4 0-.7.2-.9.6-.2.5 0 1.1.5 1.3.6.3 1.2.5 1.9.8.1.1.3.1.4.1.4 0 .8-.2.9-.6.2-.5 0-1.1-.5-1.3-.6-.3-1.2-.5-1.8-.8-.3-.1-.4-.1-.5-.1m124.1-4c-.2 0-.3 0-.5.1l-1.8.9c-.5.2-.7.8-.4 1.3.2.3.5.5.9.5.2 0 .3 0 .4-.1l1.8-.9c.5-.3.7-.9.4-1.3-.1-.3-.4-.5-.8-.5M146.5 358c-.3 0-.7.2-.9.5-.3.5-.1 1.1.4 1.4.6.3 1.2.7 1.8 1 .2.1.3.1.5.1.4 0 .7-.2.9-.5.3-.5.1-1.1-.4-1.4-.6-.3-1.2-.6-1.7-1-.3 0-.4-.1-.6-.1m148.8-4.7c-.2 0-.4.1-.5.2-.6.4-1.1.7-1.7 1.1-.5.3-.6.9-.3 1.4.2.3.5.5.8.5.2 0 .4 0 .5-.2.6-.4 1.1-.7 1.7-1.1.5-.3.6-.9.3-1.4-.1-.4-.5-.5-.8-.5m-160.7-2.8c-.3 0-.6.1-.8.4-.3.5-.2 1.1.2 1.4.6.4 1.1.8 1.7 1.2.2.1.4.2.6.2.3 0 .6-.2.8-.4.3-.5.2-1.1-.3-1.4-.5-.4-1.1-.8-1.6-1.1-.2-.2-.4-.3-.6-.3m172.1-5.5c-.2 0-.4.1-.6.2-.5.4-1 .8-1.6 1.2-.4.3-.5 1-.2 1.4.2.3.5.4.8.4.2 0 .4-.1.6-.2.5-.4 1.1-.8 1.6-1.3.4-.3.5-1 .2-1.4-.2-.2-.5-.3-.8-.3m-183.1-3.1c-.3 0-.6.1-.8.3-.4.4-.3 1 .1 1.4.5.4 1 .9 1.5 1.3.2.2.4.2.6.2.3 0 .6-.1.8-.4.4-.4.3-1.1-.1-1.4-.5-.4-1-.9-1.5-1.3-.2 0-.4-.1-.6-.1m193.6-6.2c-.3 0-.5.1-.7.3-.5.5-1 .9-1.4 1.4-.4.4-.4 1 0 1.4.2.2.5.3.7.3.2 0 .5-.1.7-.3.5-.5 1-.9 1.5-1.4.4-.4.4-1 0-1.4-.3-.2-.6-.3-.8-.3m9.5-10.4c-.3 0-.6.1-.8.4-.4.5-.9 1-1.3 1.5-.4.4-.3 1 .1 1.4.2.2.4.2.7.2.3 0 .6-.1.8-.3.4-.5.9-1 1.3-1.5.4-.4.3-1.1-.1-1.4-.2-.2-.5-.3-.7-.3m-222.6-3.8c-.2 0-.4.1-.6.2-.4.3-.5 1-.2 1.4.4.5.8 1.1 1.3 1.6.2.2.5.4.8.4.2 0 .4-.1.6-.2.4-.3.5-1 .2-1.4-.4-.5-.8-1-1.2-1.6-.3-.3-.6-.4-.9-.4m231.1-7.4c-.3 0-.6.2-.8.4-.4.5-.8 1.1-1.1 1.6-.3.5-.2 1.1.2 1.4.2.1.4.2.6.2.3 0 .6-.1.8-.4.4-.6.8-1.1 1.2-1.7.3-.5.2-1.1-.3-1.4-.2 0-.4-.1-.6-.1M96 310c-.2 0-.4.1-.5.2-.5.3-.6.9-.3 1.4.4.6.7 1.1 1.1 1.7.2.3.5.5.8.5.2 0 .4-.1.5-.2.5-.3.6-.9.3-1.4-.4-.6-.7-1.1-1.1-1.7-.1-.3-.4-.5-.8-.5m246.6-7.8c-.4 0-.7.2-.9.5-.3.6-.6 1.2-1 1.7-.3.5-.1 1.1.4 1.4.2.1.3.1.5.1.3 0 .7-.2.9-.5.3-.6.7-1.2 1-1.8.3-.5.1-1.1-.4-1.4h-.5m-253.5-4.4c-.2 0-.3 0-.4.1-.5.2-.7.8-.4 1.3l.9 1.8c.2.3.5.5.9.5.2 0 .3 0 .5-.1.5-.3.7-.9.4-1.3l-.9-1.8c-.3-.3-.6-.5-1-.5m259.6-8.3c-.4 0-.8.2-.9.6-.3.6-.5 1.2-.8 1.8-.2.5 0 1.1.5 1.3.1.1.3.1.4.1.4 0 .7-.2.9-.6.3-.6.5-1.2.8-1.9.2-.5 0-1.1-.5-1.3-.1.1-.3 0-.4 0M83.4 285c-.1 0-.2 0-.4.1-.5.2-.8.8-.6 1.3.2.6.5 1.3.7 1.9.2.4.5.6.9.6.1 0 .3 0 .4-.1.5-.2.8-.8.6-1.3-.2-.6-.5-1.2-.7-1.9-.1-.4-.5-.6-.9-.6m270.2-8.6c-.4 0-.8.3-.9.7-.2.6-.4 1.3-.6 1.9-.2.5.1 1.1.6 1.3.1 0 .2.1.3.1.4 0 .8-.3.9-.7.2-.6.4-1.3.6-1.9.2-.5-.1-1.1-.7-1.3 0-.1-.1-.1-.2-.1M79 271.6h-.3c-.5.1-.8.7-.7 1.2.2.6.4 1.3.6 1.9.1.4.5.7 1 .7h.3c.5-.2.8-.7.7-1.2-.2-.6-.4-1.3-.5-1.9-.3-.4-.7-.7-1.1-.7m278.1-8.8c-.5 0-.9.3-1 .8-.1.7-.3 1.3-.4 2-.1.5.2 1.1.8 1.2h.2c.5 0 .9-.3 1-.8.1-.7.3-1.3.4-2 .1-.5-.2-1.1-.8-1.2h-.2m-281.2-4.9h-.2c-.5.1-.9.6-.8 1.2.1.7.2 1.3.4 2 .1.5.5.8 1 .8h.2c.5-.1.9-.6.8-1.2-.1-.7-.2-1.3-.4-2-.1-.4-.5-.8-1-.8m283.4-9c-.5 0-.9.4-1 .9-.1.7-.1 1.3-.2 2-.1.5.3 1 .9 1.1h.1c.5 0 .9-.4 1-.9.1-.7.2-1.3.2-2 .1-.5-.3-1-.9-1.1h-.1M74.2 244c-.6 0-1 .5-1 1.1 0 .7.1 1.3.2 2 0 .5.5.9 1 .9h.1c.5 0 1-.5.9-1.1-.1-.7-.1-1.3-.2-2 0-.5-.5-.9-1-.9m285.9-9.2c-.6 0-1 .4-1 1v2c0 .6.4 1 1 1 .5 0 1-.4 1-1v-2c0-.5-.4-1-1-1m-286.2-4.9c-.5 0-1 .4-1 1v2c0 .6.4 1 1 1 .5 0 1-.4 1-1v-2c0-.5-.5-1-1-1m285.7-9.1s-.1 0 0 0c-.6.1-1 .5-1 1.1.1.7.1 1.3.2 2 0 .5.5.9 1 .9h.1c.5 0 1-.5.9-1.1 0-.7-.1-1.3-.2-2-.1-.5-.5-.9-1-.9m-284.7-4.9c-.5 0-.9.4-1 .9-.1.7-.2 1.3-.2 2-.1.5.3 1 .9 1.1h.1c.5 0 .9-.4 1-.9.1-.7.1-1.3.2-2 .1-.5-.3-1-.9-1.1h-.1m282.8-9h-.2c-.5.1-.9.6-.8 1.2.1.7.2 1.3.4 2 .1.5.5.8 1 .8h.2c.5-.1.9-.6.8-1.2-.1-.7-.2-1.3-.4-2-.1-.5-.5-.8-1-.8m-280.4-4.8c-.5 0-.9.3-1 .8-.1.7-.3 1.3-.4 2-.1.5.2 1.1.8 1.2h.2c.5 0 .9-.3 1-.8.1-.7.3-1.3.4-2 .1-.5-.2-1.1-.8-1.2h-.2m278.6-5.7c-.6.1-1.2.2-1.9.2.2.3.5.5.9.5h.3c.4-.1.7-.4.7-.7M81 188.5c-.4 0-.8.3-.9.7-.2.6-.4 1.3-.6 1.9-.2.5.1 1.1.7 1.3h.3c.4 0 .8-.3 1-.7.2-.6.4-1.3.6-1.9.2-.5-.1-1.1-.6-1.3H81m5.8-11.2c-.8.2-1.6.4-2.4.5-.2.5 0 1.1.5 1.3.1.1.3.1.4.1.4 0 .8-.2.9-.6.2-.4.4-.8.6-1.3m257.1-10.1c-.2 0-.3 0-.5.1-.5.3-.7.9-.4 1.3l.9 1.8c.2.3.5.5.9.5.2 0 .3 0 .4-.1.5-.2.7-.8.4-1.3l-.9-1.8c-.1-.3-.4-.5-.8-.5m-7.1-12.1c-.2 0-.4.1-.5.2-.5.3-.6.9-.3 1.4.4.6.7 1.1 1.1 1.7.2.3.5.5.8.5.2 0 .4 0 .5-.2.5-.3.6-.9.3-1.4-.4-.6-.7-1.1-1.1-1.7-.1-.3-.4-.5-.8-.5M99.9 151c-.3 0-.6.1-.8.4-.1.2-.2.3-.3.5.3.7.6 1.5.8 2.3l.1-.2c.3-.5.7-1 1-1.4.3-.5.2-1.1-.2-1.4-.2-.2-.4-.2-.6-.2m228.7-7.3c-.2 0-.4.1-.6.2-.4.3-.5 1-.2 1.4.4.5.8 1 1.2 1.6.2.3.5.4.8.4.2 0 .4-.1.6-.2.4-.3.5-1 .2-1.4-.4-.5-.8-1.1-1.3-1.6-.1-.2-.4-.4-.7-.4m-220-3.8c-.3 0-.6.1-.8.3-.4.5-.9 1-1.3 1.5-.4.4-.3 1.1.1 1.4.2.2.4.2.6.2.3 0 .6-.1.8-.4.4-.5.9-1 1.3-1.5.4-.4.3-1-.1-1.4-.2 0-.4-.1-.6-.1m210.6-6.7c-.3 0-.5.1-.7.3-.4.4-.4 1 0 1.4.5.5.9 1 1.4 1.4.2.2.5.3.7.3.2 0 .5-.1.7-.3.4-.4.4-1 0-1.4-.5-.5-.9-1-1.4-1.5-.1-.1-.4-.2-.7-.2m-200.9-3.5c-.2 0-.5.1-.7.3-.5.5-1 .9-1.5 1.4-.4.4-.4 1 0 1.4.2.2.5.3.7.3.3 0 .5-.1.7-.3.5-.5 1-.9 1.4-1.4.4-.4.4-1 0-1.4-.1-.2-.4-.3-.6-.3m190.6-6c-.3 0-.6.1-.8.4-.4.4-.3 1.1.1 1.4.5.4 1 .9 1.5 1.3.2.2.4.2.7.2.3 0 .6-.1.8-.3.4-.4.3-1-.1-1.4-.5-.4-1-.9-1.5-1.3-.2-.2-.4-.3-.7-.3m-180-3.1c-.2 0-.4.1-.6.2-.5.4-1.1.8-1.6 1.3-.4.3-.5 1-.2 1.4.2.2.5.4.8.4.2 0 .4-.1.6-.2.5-.4 1-.8 1.6-1.2.4-.3.5-1 .2-1.4-.2-.4-.5-.5-.8-.5m168.8-5.4c-.3 0-.6.2-.8.4-.3.5-.2 1.1.3 1.4.5.4 1.1.8 1.6 1.1.2.1.4.2.6.2.3 0 .6-.1.8-.4.3-.5.2-1.1-.2-1.4-.6-.4-1.1-.8-1.7-1.2-.2 0-.4-.1-.6-.1m-157.3-2.7c-.2 0-.4.1-.5.2-.6.4-1.1.7-1.7 1.1-.5.3-.6.9-.3 1.4.2.3.5.5.8.5.2 0 .4-.1.5-.2.6-.4 1.1-.7 1.7-1.1.5-.3.6-.9.3-1.4-.2-.4-.5-.5-.8-.5m145.4-4.7c-.4 0-.7.2-.9.5-.3.5-.1 1.1.4 1.4.6.3 1.2.6 1.7 1 .2.1.3.1.5.1.3 0 .7-.2.9-.5.3-.5.1-1.1-.4-1.4-.6-.3-1.2-.7-1.8-1-.1 0-.3-.1-.4-.1m-133.2-2.3c-.2 0-.3 0-.4.1l-1.8.9c-.5.3-.7.9-.4 1.3.2.3.5.5.9.5.2 0 .3 0 .5-.1l1.8-.9c.5-.2.7-.8.4-1.3-.3-.3-.6-.5-1-.5m120.5-3.8c-.4 0-.8.2-.9.6-.2.5 0 1.1.5 1.3.6.3 1.2.5 1.8.8.1.1.3.1.4.1.4 0 .7-.2.9-.6.2-.5 0-1.1-.5-1.3-.6-.3-1.2-.5-1.9-.8 0-.1-.1-.1-.3-.1m-107.7-1.9c-.1 0-.2 0-.4.1-.6.2-1.3.5-1.9.7-.5.2-.8.8-.6 1.3.2.4.5.6.9.6.1 0 .2 0 .4-.1.6-.2 1.2-.5 1.9-.7.5-.2.8-.8.6-1.3-.1-.3-.5-.6-.9-.6m94.5-3c-.4 0-.8.3-1 .7-.2.5.1 1.1.7 1.3.6.2 1.3.4 1.9.6.1 0 .2.1.3.1.4 0 .8-.3.9-.7.2-.5-.1-1.1-.6-1.3-.6-.2-1.3-.4-1.9-.6-.1-.1-.2-.1-.3-.1m-81.1-1.4h-.3c-.6.2-1.3.4-1.9.6-.5.2-.8.7-.7 1.2.1.4.5.7 1 .7h.3c.6-.2 1.3-.4 1.9-.5.5-.1.8-.7.7-1.2-.2-.5-.6-.8-1-.8m67.6-2.1c-.5 0-.9.3-1 .8-.1.5.2 1.1.8 1.2.7.1 1.3.3 1.9.4h.2c.5 0 .9-.3 1-.8.1-.5-.2-1.1-.8-1.2-.7-.1-1.3-.3-2-.4h-.1m-53.9-1h-.2c-.7.1-1.3.2-2 .4-.5.1-.9.6-.8 1.2.1.5.5.8 1 .8h.2c.7-.1 1.3-.2 2-.4.5-.1.9-.6.8-1.2-.1-.4-.5-.8-1-.8"/><path class="st8" d="M45.3 276.4c1.4 5.9 3.1 11.6 5.2 17.3.2.6.4 1.1.6 1.7 2.1 5.8 4.6 11.5 7.3 17.1 8.1 16.4 18.7 31.5 31.5 44.7 14.4 14.9 31.2 27 49.4 36 .5.3 1 .5 1.5.7 19.3 9.2 40.2 14.9 61.9 16.6 4.7.4 9.5.6 14.3.6 4.2 0 8.4-.2 12.6-.5 10.1-.7 20.1-2.3 29.9-4.7.6-.1 1.2-.3 1.7-.4 10.5-2.7 20.7-6.4 30.5-10.9 4.2-1.9 8.2-4 12.3-6.3 8.4-4.8 16.4-10.2 23.9-16.3-.9-.9-1.8-1.9-2.6-3-7.3 5.9-15.1 11.2-23.2 15.8-6.4 3.6-12.9 6.8-19.7 9.5-9.1 3.7-18.6 6.7-28.3 8.8-.7.1-1.3.3-2 .4-5.5 1.1-11 2-16.6 2.6-6.1.7-12.3 1-18.5 1-4.6 0-9.3-.2-13.9-.6-19.1-1.5-37.5-6.2-54.8-13.7-.6-.3-1.2-.5-1.8-.8-20-8.9-38.2-21.7-53.7-37.7-12.5-12.9-22.8-27.6-30.7-43.7-3.6-7.2-6.6-14.6-9.1-22.2l-.6-1.8c-.8-2.6-1.6-5.2-2.3-7.8-1.8-.4-3.4-1.3-4.8-2.4M217 57.7c-3.4 0-6.8.1-10.1.3-18.3 1-36.1 4.8-53.1 11.4-16.7 6.4-32.3 15.3-46.4 26.4-13.9 11-26.1 24.1-36.2 38.7C57 155.2 47.5 178.4 43 202.8c-.1.4-.1.8-.2 1.2-1.7 10-2.6 20.1-2.6 30.4 0 8.2.6 16.5 1.7 24.6 0 .2.1.4.1.7.9-1.6 2.1-2.9 3.5-4-.9-7-1.3-14.2-1.3-21.3 0-9 .7-18 2.1-26.8.1-.4.1-.9.2-1.3 2.9-17.6 8.5-34.6 16.6-50.5.8-4 2.8-7.6 5.7-10.3 1.8-3 3.7-5.9 5.7-8.8 9.8-14.3 21.7-27 35.4-37.8 13.8-10.9 29-19.6 45.3-25.8 19.7-7.5 40.5-11.4 61.7-11.4 30 0 59.2 7.8 85 22.3 2.8 1.6 5.5 3.2 8.2 4.9 1.6 1 3.2 2.1 4.8 3.2 2.6 1.8 5.2 3.7 7.7 5.7 2.6 2 5.1 4.1 7.6 6.3 20.1 17.5 35.8 39.3 45.9 63.5 5.5 13.2 9.5 27.1 11.6 41.4 1.2 8.3 1.9 16.9 1.9 25.4 0 15-1.9 29.9-5.7 44.2-4.4 16.6-11.2 32.5-20.4 47.1-.2.4-.5.8-.7 1.1 1.1.7 2.2 1.4 3.3 2.3.3-.4.5-.9.8-1.3 6.5-10.4 11.9-21.5 16.1-33 .4-1 .7-2 1.1-3 1-2.9 1.9-5.8 2.7-8.7 2.1-7.3 3.7-14.7 4.9-22.3.1-1 .3-1.9.4-2.9 1.1-7.8 1.6-15.7 1.6-23.7 0-8.7-.6-17.5-1.9-26-2.3-15.9-6.9-31.4-13.4-45.9-9.8-22-24.1-41.9-42.1-58.4-.7-.7-1.4-1.3-2.2-2-.4-.4-.8-.7-1.2-1.1-12.1-10.5-25.5-19.3-39.7-26.1-1-.5-1.9-.9-2.9-1.4-15.5-7-31.9-11.8-48.8-14.2-8.1-.8-16.3-1.4-24.5-1.4"/><path class="st9" d="M348.2 322.9c-15.9 0-28.8 12.9-28.8 28.8 0 4.3.9 8.4 2.6 12.1.4.8.8 1.6 1.2 2.3.6 1 1.3 2 2 3 .8 1.1 1.7 2.1 2.6 3 5.2 5.2 12.4 8.4 20.3 8.4 15.9 0 28.8-12.9 28.8-28.8 0 15.9-12.9 28.8-28.8 28.8-10.6 0-19.9-5.8-24.9-14.4-.7-1.4-1.2-2.2-1.2-2.3.2.2 7.4 5.6 18.9 5.6 9.6 0 22.1-3.8 36-17.7 0-9.1-4.2-17.2-10.8-22.4-1-.8-2.1-1.6-3.3-2.3-4.2-2.7-9.3-4.1-14.6-4.1"/><path class="st10" d="M376.9 351.6c-13.9 13.9-26.4 17.7-36 17.7-11.5 0-18.7-5.5-18.9-5.6 0 .1.5.9 1.2 2.3 5 8.6 14.3 14.4 24.9 14.4 15.9 0 28.8-12.9 28.8-28.8"/><path class="st11" d="M81.6 140.6c-4.9 0-9.3 1.9-12.7 4.9-2.9 2.7-5 6.3-5.7 10.3-.2 1.1-.3 2.3-.3 3.5 0 2.8.6 5.5 1.7 7.9.2.5.5 1 .8 1.5 3.2 5.6 9.3 9.4 16.2 9.4.9 0 1.9-.1 2.8-.2.8-.1 1.6-.3 2.4-.5 7.8-2.3 13.5-9.5 13.5-18 0 10.3-8.4 18.7-18.7 18.7-6.9 0-13-3.8-16.2-9.4-.5-.9-.8-1.5-.8-1.5.1.1 4.8 3.7 12.3 3.7 6.2 0 14.4-2.5 23.4-11.5 0-1.8-.2-3.5-.7-5.1-.2-.8-.5-1.6-.8-2.3-2.9-6.8-9.5-11.4-17.2-11.4"/><path class="st12" d="M100.3 159.3c-9 9-17.2 11.5-23.4 11.5-7.5 0-12.2-3.6-12.3-3.7 0 .1.3.6.8 1.5 3.2 5.6 9.3 9.4 16.2 9.4 10.3 0 18.7-8.3 18.7-18.7"/><path class="st11" d="M353.3 170.3c-7.3 0-13.2 5.9-13.2 13.2 0 2 .4 3.8 1.2 5.5.2.4.4.7.6 1.1 2.3 3.9 6.5 6.6 11.4 6.6h.8c.6 0 1.3-.1 1.9-.2 6-1.2 10.5-6.5 10.5-12.9 0 7.3-5.9 13.2-13.2 13.2-4.9 0-9.1-2.7-11.4-6.6-.3-.6-.5-1-.6-1.1.1.1 3.4 2.6 8.7 2.6 4.4 0 10.1-1.7 16.5-8.1 0-7.4-5.9-13.3-13.2-13.3"/><path class="st12" d="M366.5 183.4c-6.4 6.4-12.1 8.1-16.5 8.1-5.3 0-8.6-2.5-8.7-2.6 0 0 .2.4.6 1.1 2.3 3.9 6.5 6.6 11.4 6.6 7.3 0 13.2-5.9 13.2-13.2"/><path class="st9" d="M53.6 253c-3 0-5.8 1-8 2.7-1.4 1.1-2.6 2.5-3.5 4-1.1 1.9-1.7 4.1-1.7 6.4 0 2 .4 3.8 1.2 5.5.2.4.4.7.6 1.1.8 1.4 1.9 2.6 3.1 3.7 1.4 1.1 3 2 4.7 2.4 1.1.3 2.3.5 3.5.5h.6c.4 0 .7 0 1.1-.1 6.5-.8 11.5-6.4 11.5-13.1 0 7.3-5.9 13.2-13.2 13.2-4.9 0-9.1-2.7-11.4-6.6-.3-.6-.5-1-.6-1.1.1.1 3.4 2.6 8.7 2.6 4.4 0 10.1-1.7 16.5-8.1 0-5.1-2.9-9.6-7.2-11.8-.3-.2-.6-.3-1-.4-1.5-.6-3.1-.9-4.9-.9"/><path class="st10" d="M66.8 266.1c-6.4 6.4-12.1 8.1-16.5 8.1-5.3 0-8.6-2.5-8.7-2.6 0 0 .2.4.6 1.1 2.3 3.9 6.5 6.6 11.4 6.6 7.3 0 13.2-5.9 13.2-13.2"/><path class="st13" d="M160.1 209.7l-23.9 21.7v65.1l24.5-34.8c-.4-.3-.6-.7-.6-1.2v-50.8m20-18.1l-17.4 15.7c.3.3.4.6.4 1.1v50.1c4.3-4.8 10.4-7.6 16.9-7.6v-59.3m30.7-112.7l-6.2 10.3-16.8 27.7-3 4.9-3.6 6h61.7l-14.4-38.6h-23.9l6.2-10.3m2.8-2.8c-1 .8-2 1.7-2.8 2.7.8-1 1.8-1.9 2.8-2.7m14.8-1.7c.1.1.3.1.4.2 2.1.9 4 2.4 5.6 4.3-1.6-2.1-3.7-3.6-6-4.5"/><path class="st8" d="M180.1 130.8v134.1h63.4v-12.2h-63.4v-7.4h63.4v-43.2c-5.4 5.2-12.8 8.4-21 8.4-1.4 0-2.9-.1-4.4-.3-13.1-1.8-23.7-12.3-25.6-25.3-2.1-14 5.4-26.5 16.9-32.1 4-1.9 8.4-3 13.1-3 1.2 0 2.4.1 3.6.2 6.7.8 12.7 3.8 17.3 8.2v-27.6h-63.3v.2"/><path class="st13" d="M222.5 149.9c-4.7 0-9.2 1.1-13.1 3-11.5 5.5-19 18.1-16.9 32.1 2 13 12.6 23.5 25.6 25.3 1.5.2 2.9.3 4.4.3 8.1 0 15.5-3.2 21-8.4v-8.8c-.4.6-.8 1.2-1.2 1.7-4.5 6-11.7 9.9-19.8 9.9-1 0-2-.1-3-.2-10.9-1.3-19.9-9.9-21.5-20.8-1.7-11.4 4.4-21.6 13.7-26 3.2-1.6 6.9-2.4 10.7-2.4 1 0 2.1.1 3.1.2 7.4.9 13.9 5.3 17.8 11.4v-8.7c-4.6-4.5-10.7-7.5-17.3-8.2-1.1-.3-2.3-.4-3.5-.4"/><path class="st6" d="M242.7 127.7h-62.6c-.8 0-1.5.7-1.5 1.5s.7 1.5 1.5 1.5h63.4v-1.1l-.2-.4-.6-1.5m22.2 0h-.9l.9 1.5v1.5c.8 0 1.5-.7 1.5-1.5s-.7-1.5-1.5-1.5m-42.4-54.5c-3.2 0-6.3 1-9 2.9-1 .8-2 1.7-2.8 2.7l-6.2 10.3h23.9l-5.9-15.9c2.1 0 4.3.4 6.3 1.3-.1-.1-.3-.1-.4-.2-1.9-.7-3.9-1.1-5.9-1.1"/><path class="st14" d="M211.8 158c-9.3 4.5-15.4 14.7-13.7 26 1.6 10.9 10.6 19.5 21.5 20.8 1 .1 2 .2 3 .2 8.1 0 15.3-3.9 19.8-9.9.4-.6.8-1.1 1.2-1.7-.4.6-.8 1.2-1.2 1.7-30.1-14.8-30.6-37.1-30.6-37.1"/><path class="st9" d="M222.5 155.5c-3.8 0-7.5.9-10.7 2.4 0 0 .5 22.4 30.5 37.1.4-.6.8-1.1 1.2-1.7v-26.2c-3.9-6.1-10.4-10.5-17.8-11.4-1.1-.1-2.2-.2-3.2-.2"/><path class="st13" d="M243.5 274.7h-51.4c-.5 1.1-1.3 2.1-2.3 3-2.1 1.9-3.4 4.4-3.4 7.2v21h72.2-72.2v-10.7h57.1v-20.5"/><path class="st9" d="M243.5 295.2h-57.1v10.6h72.2-15.1v-10.6m0-49.8h-63.4v7.3h63.4v-7.3m0 19.5H177c-1.4 0-2.6.5-3.5 1.4-1.2 1.2-1.7 2.9-1.3 4.7.6 2.2 2.7 3.6 5 3.6h66.2v-9.7"/><path class="st6" d="M142.9 302.6c-3.7 0-6.7-3-6.7-6.7v-64.5l6.7-5.8v77z"/><path d="M281.9 258.5v1.9c0 .8.7 1.5 1.5 1.5.3 0 .6-.1.9-.3l-.9-1.3c-.5-.5-1-1.2-1.5-1.8m1.5-51.7c-.5 0-.9.2-1.1.5l1.1 1 1.5 1.4v-1.4c.1-.8-.6-1.5-1.5-1.5m-120.2 51.6c-.6.6-1.1 1.3-1.6 2l-.9 1.2c.3.2.6.3.9.3.8 0 1.5-.7 1.5-1.5v-2m-1.5-51.6c-.8 0-1.5.7-1.5 1.5v1.3l2.6-2.4c-.2-.2-.6-.4-1.1-.4" fill="#4554dc"/><path class="st14" d="M162.7 207.3l-2.6 2.4v50.7c0 .5.2.9.6 1.2l.9-1.2c.5-.7 1-1.4 1.6-2v-50.1c0-.3-.2-.7-.5-1"/><path class="st13" d="M243.5 305.8h-42v60.9h42v-60.9"/><path class="st8" d="M123.1 394.2h199c-.2-1.5-.8-2.8-1.4-4.2l-1.5-3.9c-.8-1.7-1.7-3-2.9-4.4-2.1-2.5-5-4.3-8.1-5.3-1.3-.4-2.6-.6-3.9-.7-.4-1.3-.8-2.5-1.4-3.8-2.6-5.9-8.2-10.5-14.3-12.3-4.9-1.5-10.4-1.3-15.4-.8-2.1.2-3.9.5-5.8 1-1.3-3-3.3-5.6-6.5-7.5-5.1-3-12.1-2.8-17.6-1.2-1.8.5-3.5 1.2-5.2 2.1-1.9-2.4-3.9-4.8-6.2-6.8-3.5-3.1-7.1-5.3-11.4-7-8.3-3.4-18.2-2.4-26.1 1.7-4.1 2.1-7.4 5.3-9.9 9-.6-.2-1.2-.3-1.9-.4-7.2-1.3-14.4 0-20.7 3.7-5 2.9-9.3 7.6-12.2 12.7-5.5-.4-11.3 1-16 3.8-8.4 5.1-12.5 14.6-10.6 24.3z"/><path class="st16" d="M240.5 89.1h-12.2l14.4 38.6H264l-23.5-38.6m-11.8-14.6c2.1.9 4 2.4 5.6 4.3-1.5-1.9-3.5-3.3-5.6-4.3"/><path d="M264.9 252.7h-21.4v12.2h21.4v-12.2m0-121.9h-21.4v27.6c5.1 4.9 8.6 11.6 9.2 19 .7 7.9-1.6 15.3-5.9 21.1-1 1.3-2.1 2.6-3.3 3.7v43.2h21.4V130.8" fill="#e1e0fe"/><path class="st16" d="M243.5 158.4v8.7c1.7 2.7 2.9 5.7 3.4 8.9.2 1.4.3 2.8.3 4.2 0 4.8-1.4 9.3-3.8 13.1v8.8c1.2-1.1 2.3-2.4 3.3-3.7 4.3-5.8 6.7-13.1 5.9-21.1-.6-7.3-4-14-9.1-18.9"/><path class="st18" d="M264 127.7h-21.3l.6 1.6.2.4v1.1h21.4v-1.5l-.9-1.6m-41.5-54.5l5.9 15.9h12.2l-6.2-10.3c-1.6-1.9-3.5-3.4-5.6-4.3-2-.9-4.2-1.3-6.3-1.3"/><path class="st19" d="M243.5 167.1v26.2c2.4-3.8 3.8-8.3 3.8-13.1 0-1.4-.1-2.8-.3-4.2-.7-3.2-1.8-6.2-3.5-8.9"/><path class="st16" d="M252.9 274.7h-9.4v20.5h15.1v-10.4c0-2.8-1.4-5.3-3.5-7.1-.9-.9-1.7-1.9-2.2-3"/><path class="st19" d="M258.6 295.2h-15.1v10.6h15.1v-10.6m6.3-49.8h-21.4v7.3h21.4v-7.3m2.8 19.5h-24.2v9.8H268c1.4 0 2.6-.5 3.5-1.4.9-.9 1.4-2.1 1.4-3.5 0-.4-.1-.9-.2-1.3-.5-2.2-2.7-3.6-5-3.6"/><path class="st16" d="M308.8 295.9v.5-.5M285 209.8v50.7c0 .5-.3 1-.6 1.3l17.8 25.3v-61.4l6.7 5.8-23.9-21.7m-20.1-18.2v59.2c6.5 0 12.7 2.8 17 7.7v-50.1c0-.4.2-.8.4-1l-17.4-15.8"/><path class="st18" d="M302.1 225.6v77.1c3.5 0 6.4-2.7 6.7-6.2v-65l-6.7-5.9"/><path d="M282.3 207.4c-.2.3-.4.6-.4 1v50.1c.5.6 1.1 1.3 1.5 1.9l.9 1.3c.4-.3.6-.7.6-1.3v-50.7l-1.5-1.4-1.1-.9" fill="#3341bc"/></g></switch></svg>