<svg version="1.1" id="Слой_2" xmlns="http://www.w3.org/2000/svg" x="0" y="0" viewBox="0 0 1920 1080" xml:space="preserve"><style>.st0{fill:#4f7df0}.st1{fill:#c4d3d7}.st2{fill:#fff}.st4{fill:#adb9d6}.st5{fill:#e1e0fe}.st6{fill:#466eef}.st8{fill:#fec240}</style><switch><g><path class="st0" d="M843.3 582.9L822 604.2l6.3 6.3 21.3-21.3-6.3-6.3m123.8-123.8L947 479.2l6.3 6.3 20.1-20.1-6.3-6.3"/><path class="st1" d="M828.8 379.2c-11.3 0-22.5 4.3-31.1 12.9l-41.5 41.5c-.4.4-.8.8-1.1 1.2.4-.4.7-.8 1.1-1.2l20.5-20.5c-.3.3-22.5 22.9 20.4 69.7l76.7-76.7-14-14c-8.5-8.6-19.8-12.9-31-12.9"/><path class="st2" d="M886.3 418.5l-76.8 76.8 146.4 146.4 76.8-76.8-79.5-79.5-6.3-6.3-60.6-60.6"/><path class="st1" d="M1032.8 565l-76.9 76.8 55.7 31 .3.2 43.1-43.1-22.2-64.9"/><path class="st2" d="M1071.3 707.2l36.1 36.1-36.1-36.1zm36.1 39c.7 0 1.5-.3 2-.8 1.1-1.1 1.1-2.9 0-4l-36.1-36.1c-1.1-1.1-2.9-1.1-4 0s-1.1 2.9 0 4l36.1 36.1c.6.5 1.3.8 2 .8z"/><path class="st0" d="M1055.4 629.4l-43.5 43.6 17.3 17.3 43.1-43.1h.1l.4-.4-17.4-17.4"/><path class="st1" d="M1011.3 708.3l10.7 36.3-10.7-36.3m61-61.1l-43.1 43.1 11.1 35.9 68.3-68.3-36.3-10.7"/><path class="st0" d="M1108.7 658l-68.3 68.3 11.9 11.9-18.4 18.3-11.9-11.9 11.9 11.9 86.7-86.6-11.9-11.9"/><path d="M1115.8 735.1c4.6 4.6 4.6 12 0 16.6-4.6 4.6-12 4.6-16.6 0-4.6-4.6-4.6-12 0-16.6s12-4.6 16.6 0zM767.2 525.4c1.7 1.6 3.9 2.4 6.1 2.4-2.2.1-4.4-.7-6.1-2.4m12.3-.1s0 .1 0 0c0 .1 0 0 0 0m3.1-3l-3 3 3-3m-18.1-3.3c0 2.3.9 4.5 2.6 6.2l.1.1-.1-.1c-1.7-1.6-2.6-3.9-2.6-6.2m118.6-118.6c-2.3 0-4.5.9-6.2 2.6l-3 3-76.7 76.7c1.9 2.1 3.9 4.2 6.1 6.4l6.2 6.2 76.8-76.8 3-3c1.7-1.7 2.6-4 2.6-6.2 0-2.3-.9-4.5-2.6-6.2-1.7-1.8-3.9-2.7-6.2-2.7" fill="#ec007b"/><path class="st1" d="M947.2 513c.7 0 1.5-.3 2-.8 1.1-1.1 1.1-2.9 0-4L886.1 445c-1.1-1.1-2.9-1.1-4 0s-1.1 2.9 0 4l63.1 63.1c.6.7 1.3.9 2 .9z"/><path class="st5" d="M755 434.8c-16 17.2-15.7 44.1 1 60.9-16.6-16.8-17-43.7-1-60.9"/><path class="st4" d="M776.7 413.1l-20.5 20.5c-.4.4-.8.8-1.1 1.2-16 17.2-15.7 44.1 1 60.9l.2.2 14 14 27-27c-43.1-46.9-20.9-69.5-20.6-69.8"/><path class="st5" d="M994 690.9l-.4.4 17.4 17.4.4-.4v-.1L994 690.9m17.9-17.9L994 690.9l17.9-17.9m-162.3-83.8l79.5 79.5-79.5-79.5m-67-66.9l60.7 60.7-60.7-60.7"/><path class="st6" d="M843.3 582.9l6.3 6.3-6.3-6.3"/><path class="st5" d="M809.5 495.4l-26.9 26.9 60.7 60.7 6.3 6.3 79.5 79.5 26.9-26.9c-.2-.3-93.6-93.7-146.5-146.5"/><path class="st4" d="M955.9 641.8L929 668.7l65 22.2 17.9-17.9-.3-.2-55.7-31"/><path class="st6" d="M1011.9 673L994 690.9l17.3 17.4 17.9-18-17.3-17.3"/><path class="st4" d="M1029.2 690.3l-17.9 18 10.7 36.3 18.4-18.3-11.2-35.9v-.1"/><path class="st6" d="M1040.4 726.3l-18.4 18.3 11.9 11.9 18.4-18.3-11.9-11.9"/><path class="st5" d="M767.1 525.3c.1.1.1.1 0 0 .1.1.1.1 0 0m12.4 0"/><path d="M797.1 482.8l-27 27-3 3c-1.7 1.7-2.6 4-2.6 6.2 0 2.3.9 4.5 2.6 6.2l.1.1.1.1c1.7 1.6 3.9 2.4 6.1 2.4 2.2 0 4.4-.8 6.1-2.4l3-3 26.9-26.9-6.2-6.2c-2.1-2.3-4.2-4.5-6.1-6.5" fill="#d0007b"/><path transform="rotate(-45.001 977.79 464.695)" class="st0" d="M974.2 384.6h7.2v160.2h-7.2z"/><path transform="rotate(-45.001 1001.285 441.201)" class="st0" d="M997.7 361.1h7.2v160.2h-7.2z"/><path transform="rotate(-45.001 1024.78 417.707)" class="st0" d="M1021.2 337.6h7.2v160.2h-7.2z"/><path transform="rotate(-45.001 1048.344 394.21)" class="st0" d="M1044.7 314.1h7.2v160.2h-7.2z"/><path transform="rotate(-45.001 1071.699 370.723)" class="st0" d="M1068.1 290.6h7.2v160.2h-7.2z"/><path transform="rotate(-44.992 1095.261 347.225)" class="st0" d="M1091.6 267.1h7.2v160.2h-7.2z"/><path transform="rotate(-45.001 1118.758 323.73)" class="st0" d="M1115.1 243.6h7.2v160.2h-7.2z"/><path transform="rotate(-45.001 994.184 340.12)" class="st0" d="M890.9 336.5h206.6v7.2H890.9z"/><path transform="rotate(-45.001 1015.888 361.826)" class="st0" d="M912.6 358.2h206.6v7.2H912.6z"/><path transform="rotate(-45.001 1037.525 383.535)" class="st0" d="M934.3 379.9h206.6v7.2H934.3z"/><path transform="rotate(-45.001 1059.229 405.24)" class="st0" d="M956 401.6h206.6v7.2H956z"/><path transform="rotate(-45.001 1080.932 426.945)" class="st0" d="M977.7 423.3h206.6v7.2H977.7z"/><path transform="rotate(-45.001 1102.71 448.649)" class="st0" d="M999.4 445H1206v7.2H999.4z"/><path transform="rotate(-45.001 686.47 755.924)" class="st0" d="M682.9 675.8h7.2V836h-7.2z"/><path transform="rotate(-45.001 710.022 732.458)" class="st0" d="M706.4 652.3h7.2v160.2h-7.2z"/><path transform="rotate(-45.001 733.517 708.964)" class="st0" d="M729.9 628.8h7.2V789h-7.2z"/><path transform="rotate(-45.001 757.011 685.47)" class="st0" d="M753.4 605.3h7.2v160.2h-7.2z"/><path transform="rotate(-45.001 780.445 661.956)" class="st0" d="M776.9 581.8h7.2V742h-7.2z"/><path transform="rotate(-45.001 803.939 638.464)" class="st0" d="M800.4 558.4h7.2v160.2h-7.2z"/><path transform="rotate(-45.001 827.433 614.971)" class="st0" d="M823.9 534.9h7.2v160.2h-7.2z"/><path transform="rotate(-45.001 702.92 631.377)" class="st0" d="M599.6 627.7h206.6v7.2H599.6z"/><path transform="rotate(-45.001 724.626 653.083)" class="st0" d="M621.3 649.5h206.6v7.2H621.3z"/><path transform="rotate(-44.992 746.388 674.809)" class="st0" d="M643 671.2h206.6v7.2H643z"/><path transform="rotate(-45.001 768.036 696.494)" class="st0" d="M664.7 692.9h206.6v7.2H664.7z"/><path transform="rotate(-45.001 789.803 718.222)" class="st0" d="M686.4 714.6H893v7.2H686.4z"/><path transform="rotate(-45.001 811.382 739.883)" class="st0" d="M708.2 736.3h206.6v7.2H708.2z"/><path class="st0" d="M709.7 351.3c0 3.3 2.7 6 6 6s6-2.7 6-6-2.7-6-6-6-6 2.7-6 6zm424.9 149.1c0 3.3 2.7 6 6 6s6-2.7 6-6-2.7-6-6-6-6 2.7-6 6z"/><path class="st8" d="M1156.3 626.2c0 3.3 2.7 6 6 6s6-2.7 6-6-2.7-6-6-6-6 2.7-6 6zm-442.5-70.4c0 3.3 2.7 6 6 6s6-2.7 6-6-2.7-6-6-6c-3.3-.1-6 2.6-6 6zm194-224.1c.3 0 .6-.1.8-.3.4-.4.4-1.2 0-1.6l-9-9c-.4-.4-1.2-.4-1.6 0-.4.4-.4 1.2 0 1.6l9 9c.3.2.5.3.8.3z"/><path class="st8" d="M898.9 331.7c.3 0 .6-.1.8-.3l9-9c.4-.4.4-1.2 0-1.6-.4-.4-1.2-.4-1.6 0l-9 9c-.4.4-.4 1.2 0 1.6.2.2.5.3.8.3z"/><path class="st0" d="M928.7 773.8c.3 0 .6-.1.8-.3.4-.4.4-1.2 0-1.6l-9-9c-.4-.4-1.2-.4-1.6 0-.4.4-.4 1.2 0 1.6l9 9c.3.2.6.3.8.3z"/><path class="st0" d="M919.8 773.8c.3 0 .6-.1.8-.3l9-9c.4-.4.4-1.2 0-1.6-.4-.4-1.2-.4-1.6 0l-9 9c-.4.4-.4 1.2 0 1.6.2.2.5.3.8.3z"/></g></switch></svg>